<?xml version="1.0" encoding="utf-8"?>
<!-- Generator: Adobe Illustrator 24.1.1, SVG Export Plug-In . SVG Version: 6.00 Build 0)  -->
<svg version="1.1" id="vector" xmlns="http://www.w3.org/2000/svg" xmlns:xlink="http://www.w3.org/1999/xlink" x="0px" y="0px"
	 viewBox="0 0 432 432" style="enable-background:new 0 0 432 432;" xml:space="preserve">
<style type="text/css">
	.st0{display:none;fill:none;}
	.st1{fill:#4285F4;}
	.st2{fill:#0F9D58;}
	.st3{fill:#DB4437;}
	.st4{fill:#F4B400;}
</style>
<path class="st0" d="M0,0h432v432H0V0z"/>
<path class="st1" d="M0,69.3V20.5h73.1l83.4,176.8h140l76.4-136.4h56.1l-90.1,162c-4,7.3-9.5,13-16.3,17.2
	c-6.8,4.2-14.3,6.2-22.5,6.2H152.3l-19.6,36h238.6v48.8H125.2c-17,0-29.8-7.3-38.4-21.9s-8.8-29.4-0.7-44.1l26.3-47l-70.2-149
	C41.9,69.3,0,69.3,0,69.3z"/>
<path class="st2" d="M208.2,161.4v-60.5h-60.5V60.5h60.5V0h40.2v60.5h60.5v40.4h-60.5v60.5H208.2z"/>
<path class="st3" d="M326.7,432c-11,0-20.5-4-28.5-11.9c-7.9-7.9-11.9-17.4-11.9-28.5c0-11,4-20.5,11.9-28.5s17.4-11.9,28.5-11.9
	s20.5,4,28.5,11.9s11.9,17.4,11.9,28.5c0,11-4,20.5-11.9,28.5C347.2,428,337.7,432,326.7,432z"/>
<path class="st4" d="M125.2,432c-11,0-20.5-4-28.5-11.9c-7.9-7.9-11.9-17.4-11.9-28.5c0-11,4-20.5,11.9-28.5s17.4-11.9,28.5-11.9
	s20.5,4,28.5,11.9c7.9,7.9,11.9,17.4,11.9,28.5c0,11-4,20.5-11.9,28.5C145.7,428,136.2,432,125.2,432z"/>
</svg>
