<?xml version="1.0" encoding="utf-8"?>
<!-- Generator: Adobe Illustrator 24.1.1, SVG Export Plug-In . SVG Version: 6.00 Build 0)  -->
<svg version="1.1" id="vector" xmlns="http://www.w3.org/2000/svg" xmlns:xlink="http://www.w3.org/1999/xlink" x="0px" y="0px"
	 viewBox="0 0 432 432" style="enable-background:new 0 0 432 432;" xml:space="preserve">
<style type="text/css">
	.st0{display:none;fill:none;}
	.st1{fill:#0F9D58;}
	.st2{fill:#DB4437;}
	.st3{fill:#F4B400;}
	.st4{fill:#4285F4;}
</style>
<path class="st0" d="M0,0h432v432H0V0z"/>
<polygon class="st1" points="197.9,166.8 237.2,166.8 237.2,107.8 296.2,107.8 296.2,68.4 237.2,68.4 237.2,9.4 197.9,9.4 
	197.9,68.4 138.8,68.4 138.8,107.8 197.9,107.8 "/>
<path class="st2" d="M315.9,343.9c-21.6,0-39.2,17.7-39.2,39.4s17.5,39.4,39.2,39.4c21.6,0,39.4-17.7,39.4-39.4
	S337.6,343.9,315.9,343.9z"/>
<path class="st3" d="M119.2,343.9c-21.6,0-39.2,17.7-39.2,39.4s17.5,39.4,39.2,39.4c21.6,0,39.4-17.7,39.4-39.4
	S140.8,343.9,119.2,343.9"/>
<path class="st4" d="M140.8,245.5h146.6c14.8,0,27.7-8.1,34.4-20.3l76-137.9l-34.2-18.9l-76.1,137.7H149.3L65.4,29.1H1.1v39.4h39.4
	l70.8,149.3l-26.6,48c-14.4,26.4,4.5,58.4,34.4,58.4h236.1v-39.4H119.2L140.8,245.5z"/>
</svg>
